<svg version="1.1" id="Layer_1" xmlns="http://www.w3.org/2000/svg" xmlns:xlink="http://www.w3.org/1999/xlink" x="0px" y="0px"
	 width="100%" viewBox="0 0 512 95" enable-background="new 0 0 512 95" xml:space="preserve">
<path fill="#2A2928" opacity="1.000000" stroke="none" 
	d="
M513.000000,72.000000 
	C513.000000,79.985977 513.000000,87.971954 513.000000,96.000000 
	C437.979095,96.000000 362.958221,96.000000 287.473236,95.776192 
	C287.009155,95.552383 287.057587,95.107300 287.407471,95.085106 
	C288.892578,93.726700 290.027802,92.390488 291.420349,90.910576 
	C291.789093,90.196274 291.900574,89.625679 292.343353,88.847656 
	C293.455841,83.447365 294.626099,78.276802 294.925201,73.056313 
	C295.351654,65.613373 295.017944,58.130310 295.234863,50.670959 
	C295.440002,43.619003 295.936859,36.575527 296.335846,28.945820 
	C293.675323,28.945820 291.888184,28.945820 289.998413,28.741642 
	C289.684357,28.265911 289.410919,28.168631 288.735504,28.154781 
	C287.930450,28.101776 287.465332,28.139612 286.672119,28.142229 
	C285.949097,28.737600 285.554138,29.368193 285.104736,30.248680 
	C285.084167,30.665682 285.118042,30.832792 285.098907,31.326080 
	C285.339905,32.445580 285.633881,33.238903 285.936462,34.293045 
	C286.005707,34.716904 286.066437,34.879944 286.072327,35.435833 
	C286.064758,36.884602 286.112000,37.940514 286.088867,39.401077 
	C286.413849,42.214893 286.809265,44.624058 287.130676,47.415287 
	C287.355255,49.238445 287.653809,50.679539 287.781921,52.436169 
	C286.074158,53.243664 284.536835,53.735622 282.763367,54.134869 
	C282.365967,53.990932 282.204773,53.939709 281.884918,53.582024 
	C280.158905,49.025547 277.919434,44.888512 277.181549,40.499046 
	C276.071564,33.896454 276.012604,27.117172 275.459930,19.791300 
	C270.866455,20.265066 266.504822,20.714920 261.837463,21.196302 
	C261.886139,22.183214 261.770874,23.009249 261.986267,23.737501 
	C265.012543,33.970592 267.562744,44.391708 271.396912,54.315762 
	C272.963776,58.371235 275.448700,63.774788 282.277588,62.786907 
	C283.808533,62.110802 285.038330,61.460320 286.621948,60.771767 
	C287.636780,67.103340 288.297821,73.472977 288.792603,79.959969 
	C288.396606,80.260292 288.296326,80.497803 288.182495,81.154785 
	C285.487915,86.736626 283.148193,87.259209 276.968475,83.642250 
	C274.033081,81.741539 271.815216,78.112129 267.475525,80.935066 
	C266.059113,81.026680 265.030182,81.105583 263.700775,81.201233 
	C262.732544,81.640480 262.064850,82.062981 261.010681,82.730019 
	C262.234894,83.318390 263.076935,83.723106 264.082703,84.416626 
	C266.840393,86.729477 269.434448,88.753517 272.312469,90.955544 
	C273.715729,91.796494 274.834961,92.459457 276.147278,93.393188 
	C277.560211,94.442642 278.780090,95.221321 280.000000,96.000000 
	C200.645767,96.000000 121.291542,96.000000 41.656898,95.658821 
	C42.195736,95.205681 43.017918,95.111725 43.833797,94.979042 
	C56.195843,92.968765 64.047722,84.535889 61.705154,73.983505 
	C60.368568,67.962677 56.729145,62.221737 53.202656,56.975910 
	C48.617451,50.155190 42.793114,44.174118 38.107357,37.412239 
	C34.340931,31.977024 32.331150,25.590044 35.051579,19.080029 
	C35.945606,16.940609 38.762417,14.627017 40.973598,14.311673 
	C42.891605,14.038141 45.972004,15.981158 47.152374,17.829721 
	C49.025570,20.763300 49.743431,24.434599 51.045761,28.060249 
	C53.884975,26.562357 57.310757,24.755007 60.766277,22.931969 
	C57.844612,15.896528 53.889240,9.847928 46.625595,8.253107 
	C37.053284,6.151392 24.405537,15.025389 24.016802,26.177925 
	C23.619402,37.579056 27.571455,47.635124 34.208458,56.658016 
	C38.014786,61.832657 42.488594,66.516708 46.288383,71.695671 
	C50.695621,77.702568 49.900948,80.906555 43.276222,84.294838 
	C34.135483,88.969963 24.480715,89.088264 14.814832,86.348930 
	C9.597016,84.870193 4.542604,82.498817 1.000000,89.000000 
	C1.000000,59.694893 1.000000,30.389782 1.000000,1.000000 
	C123.020882,1.000000 245.041779,1.000000 367.708679,1.360449 
	C371.393677,14.081636 369.858337,26.390453 368.398041,39.824272 
	C365.143127,35.259491 362.844421,31.419199 359.947235,28.101540 
	C354.003571,21.295355 348.026245,14.459301 341.414185,8.335890 
	C339.660828,6.712101 335.440857,7.105952 332.584198,7.694179 
	C331.670624,7.882291 331.035889,11.688294 331.067596,13.827192 
	C331.242340,25.610806 331.914185,37.390522 331.925934,49.172062 
	C331.936829,60.120140 331.328003,71.068665 331.007477,82.017441 
	C330.961060,83.602440 331.001038,85.189964 331.001038,87.250969 
	C335.025818,86.617119 338.236542,86.111481 342.399323,85.455902 
	C341.195099,67.621864 339.993073,49.820141 338.791046,32.018417 
	C340.758972,32.589626 341.587494,33.349003 342.113159,34.279495 
	C349.675232,47.664619 357.155701,61.096062 364.777832,74.446701 
	C365.758392,76.164207 367.251770,78.538811 368.804382,78.792427 
	C372.655212,79.421494 376.677795,78.999146 380.703735,78.999146 
	C380.798523,77.770767 380.945160,77.114967 380.884003,76.479164 
	C379.604065,63.171188 377.856354,49.888794 377.156189,36.551205 
	C376.680511,27.490009 377.473541,18.339031 378.084747,9.254141 
	C378.371887,4.985877 377.542145,2.006479 373.000000,1.000000 
	C419.552979,1.000000 466.105957,1.000000 513.000000,1.000000 
	C513.000000,14.018909 513.000000,27.040796 512.641235,40.322506 
	C512.133362,38.056419 511.984283,35.530506 511.862274,32.603733 
	C510.758789,25.477215 510.378204,18.369434 503.175598,14.648382 
	C503.389832,13.910334 503.713531,12.982516 503.484833,12.816745 
	C500.885040,10.932207 498.638306,9.304631 494.676575,10.212427 
	C488.220367,11.691815 481.380096,15.285477 474.388000,10.049221 
	C468.348755,10.030237 462.767670,10.030237 456.862030,10.030237 
	C458.178650,28.890076 453.534393,45.497334 444.824249,61.072838 
	C444.268982,61.109711 443.713684,61.146584 443.158417,61.183456 
	C441.380737,48.592941 439.603058,36.002422 437.805328,23.269842 
	C432.975494,22.986940 427.747162,22.680698 423.023102,22.403996 
	C427.841980,41.099014 432.664886,59.809647 437.614105,79.010338 
	C438.664917,79.010338 440.522705,78.763359 442.291260,79.055862 
	C447.981201,79.996918 450.700562,77.764824 452.610626,72.166290 
	C457.237549,58.604225 462.723328,45.335159 468.127777,31.977621 
	C472.012543,31.406399 476.739777,34.934700 479.416931,29.109211 
	C484.469025,29.481449 488.101288,28.837826 490.847473,24.049307 
	C493.503296,19.418327 498.167877,20.308434 499.853638,25.454401 
	C501.063538,29.147707 501.440918,33.113731 502.099121,37.369476 
	C500.458038,38.518833 498.849640,39.995777 497.366150,39.879456 
	C483.809265,38.816414 479.336914,49.343128 479.994965,59.250656 
	C480.613708,68.566330 488.448181,75.359291 496.352478,73.923065 
	C501.837036,72.926506 507.446411,72.616661 513.000000,72.000000 
M153.112503,33.107132 
	C151.395294,26.917622 149.799133,20.689907 147.867004,14.568230 
	C147.439117,13.212560 145.868347,11.285470 144.748642,11.233251 
	C138.036133,10.920202 131.301682,11.078016 124.454880,11.078016 
	C123.859619,32.817402 123.248970,55.118904 122.622787,77.987587 
	C124.911179,77.987587 127.399269,77.717514 129.806091,78.044891 
	C134.534668,78.688072 136.144608,76.232521 135.960495,72.135269 
	C135.425323,60.225246 134.690063,48.324257 134.144196,36.414642 
	C133.962189,32.443489 134.115463,28.456964 134.115463,24.477468 
	C138.554779,35.221882 142.203613,46.012268 146.216934,56.665340 
	C146.768097,58.128368 149.049530,59.684750 150.670746,59.854767 
	C154.926041,60.301018 159.259140,60.005436 163.485977,60.005436 
	C166.509537,49.845310 169.401199,40.128410 172.446167,29.896372 
	C176.030121,50.346790 173.112976,69.937355 170.351776,89.767464 
	C176.305862,90.228340 181.940002,90.664452 187.273605,91.077301 
	C186.327042,83.640297 185.012329,76.992989 184.739990,70.303246 
	C184.337051,60.405773 184.593826,50.477158 184.718948,40.563686 
	C184.843140,30.722879 186.034012,20.835499 183.541641,11.400098 
	C176.477859,11.400098 169.894409,11.400098 163.883301,11.400098 
	C162.447739,18.357079 161.312820,24.849133 159.704895,31.221842 
	C158.925873,34.309429 156.838257,36.135914 153.112503,33.107132 
M243.996140,57.410805 
	C242.874374,68.144028 241.752625,78.877243 240.612671,89.784561 
	C246.252319,90.222061 251.894989,90.659798 257.382172,91.085472 
	C256.200409,82.843285 254.660492,75.401642 254.182312,67.892387 
	C253.643585,59.432053 253.422531,50.849915 254.225235,42.431549 
	C255.219559,32.003601 255.529968,21.731550 253.683472,11.390079 
	C246.646515,11.390079 239.930069,11.390079 233.253357,11.390079 
	C232.291199,25.004047 229.701569,34.321426 225.250168,39.734455 
	C223.103180,32.204041 220.796249,24.997637 219.046280,17.658434 
	C217.911072,12.897504 215.912918,10.406779 210.573074,10.870611 
	C207.023636,11.178924 203.374969,10.409056 199.776077,10.065709 
	C196.168716,9.721557 193.957413,10.911146 193.997650,14.923409 
	C194.042740,19.420692 194.108246,23.921787 193.980011,28.415951 
	C193.719940,37.529716 193.234711,46.637711 193.033981,55.752308 
	C192.875015,62.969818 193.001999,70.193626 193.001999,77.992989 
	C195.307938,77.992989 198.130493,77.716309 200.873825,78.064270 
	C204.170639,78.482445 205.711975,76.698837 205.791565,74.065384 
	C206.007401,66.922165 206.036514,59.753208 205.677475,52.617706 
	C205.207031,43.267426 204.293655,33.939430 203.570801,24.601852 
	C204.000580,24.521509 204.430374,24.441168 204.860168,24.360825 
	C207.547073,32.261234 210.346161,40.125660 212.894623,48.070484 
	C216.731674,60.032490 216.660095,59.885761 228.805267,60.094471 
	C232.711945,60.161610 234.176102,58.815674 235.101837,55.139347 
	C237.192596,46.836330 239.820160,38.668495 242.229370,30.445669 
	C242.818298,30.504942 243.407227,30.564213 243.996155,30.623486 
	C243.996155,39.226547 243.996155,47.829605 243.996140,57.410805 
M93.016426,11.016364 
	C91.162155,12.128526 88.327896,12.801494 87.602692,14.419661 
	C78.729301,34.219120 73.818497,55.078621 71.418945,76.602203 
	C81.392807,77.694702 81.392807,77.694702 83.257927,68.714981 
	C86.483322,53.186104 86.483292,53.183811 99.762520,52.966618 
	C100.048416,52.961945 100.338058,53.185760 100.625389,53.304596 
	C101.412544,61.095455 102.199707,68.886314 102.993721,76.744987 
	C107.652023,76.744987 111.586136,76.744987 115.939209,76.744987 
	C112.811394,54.370541 109.727180,32.307976 106.634239,10.183000 
	C102.096771,10.464523 97.992905,10.719144 93.016426,11.016364 
M407.982391,32.851913 
	C407.967407,34.682369 408.270538,36.599117 407.807007,38.307899 
	C407.564972,39.200241 405.840088,40.460621 405.012390,40.309471 
	C390.142578,37.594143 384.919983,49.448181 386.090363,60.090092 
	C386.938416,67.801277 392.879089,74.245789 399.259796,73.912842 
	C405.770294,73.573128 412.237488,72.403786 418.986267,71.565010 
	C418.986267,61.850124 419.251160,52.538208 418.893402,43.250282 
	C418.653656,37.026012 417.837067,30.779919 416.719604,24.645418 
	C415.508759,17.998304 407.766876,12.773502 400.838257,12.954294 
	C393.914917,13.134949 383.820129,21.836376 383.651093,28.857271 
	C388.816437,29.029236 393.806946,30.265739 397.112488,23.829556 
	C399.369904,19.434156 404.092682,20.561962 405.931915,25.368710 
	C406.753479,27.515884 407.253052,29.786282 407.982391,32.851913 
M479.519623,32.488403 
	C479.519623,32.488403 479.488495,32.495415 479.519623,32.488403 
z"/>
<path fill="#F06808" opacity="1.000000" stroke="none" 
	d="
M372.583344,1.000000 
	C377.542145,2.006479 378.371887,4.985877 378.084747,9.254141 
	C377.473541,18.339031 376.680511,27.490009 377.156189,36.551205 
	C377.856354,49.888794 379.604065,63.171188 380.884003,76.479164 
	C380.945160,77.114967 380.798523,77.770767 380.703735,78.999146 
	C376.677795,78.999146 372.655212,79.421494 368.804382,78.792427 
	C367.251770,78.538811 365.758392,76.164207 364.777832,74.446701 
	C357.155701,61.096062 349.675232,47.664619 342.113159,34.279495 
	C341.587494,33.349003 340.758972,32.589626 338.791046,32.018417 
	C339.993073,49.820141 341.195099,67.621864 342.399323,85.455902 
	C338.236542,86.111481 335.025818,86.617119 331.001038,87.250969 
	C331.001038,85.189964 330.961060,83.602440 331.007477,82.017441 
	C331.328003,71.068665 331.936829,60.120140 331.925934,49.172062 
	C331.914185,37.390522 331.242340,25.610806 331.067596,13.827192 
	C331.035889,11.688294 331.670624,7.882291 332.584198,7.694179 
	C335.440857,7.105952 339.660828,6.712101 341.414185,8.335890 
	C348.026245,14.459301 354.003571,21.295355 359.947235,28.101540 
	C362.844421,31.419199 365.143127,35.259491 368.398041,39.824272 
	C369.858337,26.390453 371.393677,14.081636 368.177368,1.360449 
	C369.388885,1.000000 370.777802,1.000000 372.583344,1.000000 
z"/>
<path fill="#EF6809" opacity="1.000000" stroke="none" 
	d="
M1.000000,89.333328 
	C4.542604,82.498817 9.597016,84.870193 14.814832,86.348930 
	C24.480715,89.088264 34.135483,88.969963 43.276222,84.294838 
	C49.900948,80.906555 50.695621,77.702568 46.288383,71.695671 
	C42.488594,66.516708 38.014786,61.832657 34.208458,56.658016 
	C27.571455,47.635124 23.619402,37.579056 24.016802,26.177925 
	C24.405537,15.025389 37.053284,6.151392 46.625595,8.253107 
	C53.889240,9.847928 57.844612,15.896528 60.766277,22.931969 
	C57.310757,24.755007 53.884975,26.562357 51.045761,28.060249 
	C49.743431,24.434599 49.025570,20.763300 47.152374,17.829721 
	C45.972004,15.981158 42.891605,14.038141 40.973598,14.311673 
	C38.762417,14.627017 35.945606,16.940609 35.051579,19.080029 
	C32.331150,25.590044 34.340931,31.977024 38.107357,37.412239 
	C42.793114,44.174118 48.617451,50.155190 53.202656,56.975910 
	C56.729145,62.221737 60.368568,67.962677 61.705154,73.983505 
	C64.047722,84.535889 56.195843,92.968765 43.833797,94.979042 
	C43.017918,95.111725 42.195736,95.205681 41.188240,95.658821 
	C34.312355,96.000000 27.624710,96.000000 20.264759,95.660431 
	C13.394968,93.880577 7.197484,92.440285 1.000000,91.000000 
	C1.000000,90.555557 1.000000,90.111107 1.000000,89.333328 
z"/>
<path fill="#EF6809" opacity="1.000000" stroke="none" 
	d="
M287.204681,47.033222 
	C286.809265,44.624058 286.413849,42.214893 286.298065,39.238243 
	C286.427490,37.461502 286.277313,36.252243 286.127136,35.042980 
	C286.066437,34.879944 286.005707,34.716904 286.147095,34.141197 
	C288.801361,31.567839 287.148499,31.208458 285.151886,30.999903 
	C285.118042,30.832792 285.084167,30.665682 285.329041,30.111191 
	C286.071930,29.208355 286.536072,28.692900 287.000214,28.177448 
	C287.465332,28.139612 287.930450,28.101776 288.901062,28.278975 
	C289.631653,28.654448 289.863159,28.805052 290.101044,28.945820 
	C291.888184,28.945820 293.675323,28.945820 296.335846,28.945820 
	C295.936859,36.575527 295.440002,43.619003 295.234863,50.670959 
	C295.017944,58.130310 295.351654,65.613373 294.925201,73.056313 
	C294.626099,78.276802 293.455841,83.447365 292.040222,88.784302 
	C288.975922,88.352547 286.340912,87.178192 285.065491,91.352608 
	C287.337006,91.241470 289.250031,91.147873 291.163055,91.054276 
	C290.027802,92.390488 288.892578,93.726700 287.226807,94.975967 
	C286.130829,95.259346 285.565430,95.629677 285.000000,96.000000 
	C283.611115,96.000000 282.222198,96.000000 280.416656,96.000000 
	C278.780090,95.221321 277.560211,94.442642 276.075500,93.070023 
	C275.139099,91.262085 274.467499,90.048088 273.795929,88.834091 
	C273.206787,89.481918 272.617645,90.129738 272.028473,90.777557 
	C269.434448,88.753517 266.840393,86.729477 264.097229,84.049332 
	C263.965851,82.656982 263.983551,81.920731 264.001282,81.184486 
	C265.030182,81.105583 266.059113,81.026680 267.704468,81.180191 
	C270.854584,83.663483 272.704102,88.286629 277.136200,83.954971 
	C283.148193,87.259209 285.487915,86.736626 288.293396,81.005043 
	C288.691772,80.279053 288.828949,80.063133 288.958862,79.842613 
	C288.297821,73.472977 287.636780,67.103340 286.404266,60.603645 
	C283.542908,59.597134 281.212341,58.653622 281.976440,62.812527 
	C275.448700,63.774788 272.963776,58.371235 271.396912,54.315762 
	C267.562744,44.391708 265.012543,33.970592 261.986267,23.737501 
	C261.770874,23.009249 261.886139,22.183214 261.837463,21.196302 
	C266.504822,20.714920 270.866455,20.265066 275.459930,19.791300 
	C276.012604,27.117172 276.071564,33.896454 277.181549,40.499046 
	C277.919434,44.888512 280.158905,49.025547 281.834137,53.834480 
	C281.941986,55.067249 281.941986,55.741100 281.941986,56.414951 
	C282.158173,56.429180 282.374390,56.443405 282.590576,56.457630 
	C282.726898,55.714279 282.863220,54.970928 282.999512,54.227577 
	C284.536835,53.735622 286.074158,53.243664 287.781433,52.062138 
	C287.702515,49.926121 287.453613,48.479671 287.204681,47.033222 
M279.893280,89.024315 
	C279.893280,89.024315 280.113800,88.992432 280.113800,88.992432 
	C280.113800,88.992432 279.900757,88.933426 279.893280,89.024315 
M290.610535,77.195709 
	C290.562164,77.209427 290.513794,77.223145 290.610535,77.195709 
M292.359558,77.200882 
	C292.410431,77.036926 292.461304,76.872971 292.512146,76.709007 
	C292.439331,76.825645 292.366516,76.942276 292.359558,77.200882 
M293.610077,32.195408 
	C293.561768,32.209103 293.513489,32.222794 293.610077,32.195408 
M285.251099,56.799103 
	C285.251099,56.799103 285.060730,56.828503 285.060730,56.828503 
	C285.060730,56.828503 285.248199,56.877903 285.251099,56.799103 
M291.804626,81.246269 
	C291.804626,81.246269 291.917358,81.091003 291.917358,81.091003 
	C291.917358,81.091003 291.752625,81.186928 291.804626,81.246269 
M291.471100,52.032166 
	C291.471100,52.032166 291.474640,51.999718 291.471100,52.032166 
M276.980408,88.504448 
	C276.980408,88.504448 277.004181,88.481934 276.980408,88.504448 
M290.529053,31.967924 
	C290.529053,31.967924 290.525482,32.000469 290.529053,31.967924 
M293.488800,48.480392 
	C293.488800,48.480392 293.496124,48.512421 293.488800,48.480392 
z"/>
<path fill="#F06808" opacity="1.000000" stroke="none" 
	d="
M513.000000,71.531342 
	C507.446411,72.616661 501.837036,72.926506 496.352478,73.923065 
	C488.448181,75.359291 480.613708,68.566330 479.994965,59.250656 
	C479.336914,49.343128 483.809265,38.816414 497.366150,39.879456 
	C498.849640,39.995777 500.458038,38.518833 502.320374,37.113125 
	C503.530060,33.276157 504.427856,30.106936 505.429749,26.570290 
	C507.508484,29.001230 506.512817,34.372128 511.835205,33.004593 
	C511.984283,35.530506 512.133362,38.056419 512.641235,40.791164 
	C513.000000,51.020893 513.000000,61.041790 513.000000,71.531342 
M499.996643,56.445354 
	C499.996063,55.452705 499.915070,54.452267 500.010315,53.468903 
	C500.270996,50.777000 499.890533,48.582870 496.637604,48.048641 
	C493.419189,47.520092 491.690033,49.166729 490.571533,51.900738 
	C488.802917,56.223816 490.398560,61.171913 494.734283,64.813904 
	C499.470703,64.402824 500.671509,61.525982 499.996643,56.445354 
z"/>
<path fill="#2B2927" opacity="1.000000" stroke="none" 
	d="
M1.000000,91.499962 
	C7.197484,92.440285 13.394968,93.880577 19.796227,95.660431 
	C13.801397,96.000000 7.602795,96.000000 1.000000,96.000000 
	C1.000000,94.686478 1.000000,93.343201 1.000000,91.499962 
z"/>
<path fill="#EF6809" opacity="1.000000" stroke="none" 
	d="
M285.333313,96.000000 
	C285.565430,95.629677 286.130829,95.259346 286.876923,94.998161 
	C287.057587,95.107300 287.009155,95.552383 287.004578,95.776192 
	C286.555542,96.000000 286.111115,96.000000 285.333313,96.000000 
z"/>
<path fill="#F06808" opacity="1.000000" stroke="none" 
	d="
M153.271515,33.466923 
	C156.838257,36.135914 158.925873,34.309429 159.704895,31.221842 
	C161.312820,24.849133 162.447739,18.357079 163.883301,11.400098 
	C169.894409,11.400098 176.477859,11.400098 183.541641,11.400098 
	C186.034012,20.835499 184.843140,30.722879 184.718948,40.563686 
	C184.593826,50.477158 184.337051,60.405773 184.739990,70.303246 
	C185.012329,76.992989 186.327042,83.640297 187.273605,91.077301 
	C181.940002,90.664452 176.305862,90.228340 170.351776,89.767464 
	C173.112976,69.937355 176.030121,50.346790 172.446167,29.896372 
	C169.401199,40.128410 166.509537,49.845310 163.485977,60.005436 
	C159.259140,60.005436 154.926041,60.301018 150.670746,59.854767 
	C149.049530,59.684750 146.768097,58.128368 146.216934,56.665340 
	C142.203613,46.012268 138.554779,35.221882 134.115463,24.477468 
	C134.115463,28.456964 133.962189,32.443489 134.144196,36.414642 
	C134.690063,48.324257 135.425323,60.225246 135.960495,72.135269 
	C136.144608,76.232521 134.534668,78.688072 129.806091,78.044891 
	C127.399269,77.717514 124.911179,77.987587 122.622787,77.987587 
	C123.248970,55.118904 123.859619,32.817402 124.454880,11.078016 
	C131.301682,11.078016 138.036133,10.920202 144.748642,11.233251 
	C145.868347,11.285470 147.439117,13.212560 147.867004,14.568230 
	C149.799133,20.689907 151.395294,26.917622 153.271515,33.466923 
z"/>
<path fill="#F06807" opacity="1.000000" stroke="none" 
	d="
M243.996155,56.921738 
	C243.996155,47.829605 243.996155,39.226547 243.996155,30.623486 
	C243.407227,30.564213 242.818298,30.504942 242.229370,30.445669 
	C239.820160,38.668495 237.192596,46.836330 235.101837,55.139347 
	C234.176102,58.815674 232.711945,60.161610 228.805267,60.094471 
	C216.660095,59.885761 216.731674,60.032490 212.894623,48.070484 
	C210.346161,40.125660 207.547073,32.261234 204.860168,24.360825 
	C204.430374,24.441168 204.000580,24.521509 203.570801,24.601852 
	C204.293655,33.939430 205.207031,43.267426 205.677475,52.617706 
	C206.036514,59.753208 206.007401,66.922165 205.791565,74.065384 
	C205.711975,76.698837 204.170639,78.482445 200.873825,78.064270 
	C198.130493,77.716309 195.307938,77.992989 193.001999,77.992989 
	C193.001999,70.193626 192.875015,62.969818 193.033981,55.752308 
	C193.234711,46.637711 193.719940,37.529716 193.980011,28.415951 
	C194.108246,23.921787 194.042740,19.420692 193.997650,14.923409 
	C193.957413,10.911146 196.168716,9.721557 199.776077,10.065709 
	C203.374969,10.409056 207.023636,11.178924 210.573074,10.870611 
	C215.912918,10.406779 217.911072,12.897504 219.046280,17.658434 
	C220.796249,24.997637 223.103180,32.204041 225.250168,39.734455 
	C229.701569,34.321426 232.291199,25.004047 233.253357,11.390079 
	C239.930069,11.390079 246.646515,11.390079 253.683472,11.390079 
	C255.529968,21.731550 255.219559,32.003601 254.225235,42.431549 
	C253.422531,50.849915 253.643585,59.432053 254.182312,67.892387 
	C254.660492,75.401642 256.200409,82.843285 257.382172,91.085472 
	C251.894989,90.659798 246.252319,90.222061 240.612671,89.784561 
	C241.752625,78.877243 242.874374,68.144028 243.996155,56.921738 
z"/>
<path fill="#F06808" opacity="1.000000" stroke="none" 
	d="
M93.452728,10.995064 
	C97.992905,10.719144 102.096771,10.464523 106.634239,10.183000 
	C109.727180,32.307976 112.811394,54.370541 115.939209,76.744987 
	C111.586136,76.744987 107.652023,76.744987 102.993721,76.744987 
	C102.199707,68.886314 101.412544,61.095455 100.625671,53.303791 
	C100.338058,53.185760 100.048416,52.961945 99.762520,52.966618 
	C86.483292,53.183811 86.483322,53.186104 83.257927,68.714981 
	C81.392807,77.694702 81.392807,77.694702 71.418945,76.602203 
	C73.818497,55.078621 78.729301,34.219120 87.602692,14.419661 
	C88.327896,12.801494 91.162155,12.128526 93.452728,10.995064 
M93.114189,23.816654 
	C92.350296,26.698851 91.586403,29.581047 90.733032,32.800873 
	C93.699196,32.800873 95.770950,32.800873 98.333488,32.800873 
	C97.988731,27.920334 97.662376,23.300303 97.336021,18.680273 
	C96.735840,18.631447 96.135651,18.582623 95.535469,18.533798 
	C94.840752,20.064528 94.146027,21.595259 93.114189,23.816654 
z"/>
<path fill="#F06808" opacity="1.000000" stroke="none" 
	d="
M467.862946,31.948006 
	C462.723328,45.335159 457.237549,58.604225 452.610626,72.166290 
	C450.700562,77.764824 447.981201,79.996918 442.291260,79.055862 
	C440.522705,78.763359 438.664917,79.010338 437.614105,79.010338 
	C432.664886,59.809647 427.841980,41.099014 423.023102,22.403996 
	C427.747162,22.680698 432.975494,22.986940 437.805328,23.269842 
	C439.603058,36.002422 441.380737,48.592941 443.158417,61.183456 
	C443.713684,61.146584 444.268982,61.109711 444.824249,61.072838 
	C453.534393,45.497334 458.178650,28.890076 456.862030,10.030237 
	C462.767670,10.030237 468.348755,10.030237 474.280304,10.386978 
	C473.816101,13.162351 473.001404,15.580982 472.077759,18.352772 
	C471.362793,20.801418 470.756836,22.896908 469.978027,25.321110 
	C469.157745,27.749214 468.510345,29.848610 467.862946,31.948006 
z"/>
<path fill="#EF6809" opacity="1.000000" stroke="none" 
	d="
M407.940582,32.426331 
	C407.253052,29.786282 406.753479,27.515884 405.931915,25.368710 
	C404.092682,20.561962 399.369904,19.434156 397.112488,23.829556 
	C393.806946,30.265739 388.816437,29.029236 383.651093,28.857271 
	C383.820129,21.836376 393.914917,13.134949 400.838257,12.954294 
	C407.766876,12.773502 415.508759,17.998304 416.719604,24.645418 
	C417.837067,30.779919 418.653656,37.026012 418.893402,43.250282 
	C419.251160,52.538208 418.986267,61.850124 418.986267,71.565010 
	C412.237488,72.403786 405.770294,73.573128 399.259796,73.912842 
	C392.879089,74.245789 386.938416,67.801277 386.090363,60.090092 
	C384.919983,49.448181 390.142578,37.594143 405.012390,40.309471 
	C405.840088,40.460621 407.564972,39.200241 407.807007,38.307899 
	C408.270538,36.599117 407.967407,34.682369 407.940582,32.426331 
M401.538849,64.800140 
	C404.868164,64.030006 406.666138,62.263222 406.062714,58.537518 
	C405.774292,56.756779 406.369415,54.792141 405.902954,53.092319 
	C405.421417,51.337646 404.083435,48.415657 403.214172,48.449085 
	C401.127136,48.529343 398.321075,49.492569 397.191742,51.083691 
	C394.255920,55.219891 395.984772,60.772675 401.538849,64.800140 
z"/>
<path fill="#EE680B" opacity="1.000000" stroke="none" 
	d="
M511.862305,32.603733 
	C506.512817,34.372128 507.508484,29.001230 505.429749,26.570290 
	C504.427856,30.106936 503.530060,33.276157 502.411011,36.701729 
	C501.440918,33.113731 501.063538,29.147707 499.853638,25.454401 
	C498.167877,20.308434 493.503296,19.418327 490.847473,24.049307 
	C488.101288,28.837826 484.469025,29.481449 479.085297,29.015705 
	C479.186707,26.345009 480.061920,23.707588 481.226990,20.925331 
	C481.723877,20.180933 481.930908,19.581375 482.067261,18.981878 
	C481.996521,18.981939 481.996582,19.123386 482.251984,19.010975 
	C482.711914,18.595676 482.916412,18.292791 483.052917,17.994568 
	C482.984955,17.999231 482.994202,18.135220 483.313477,18.095135 
	C484.112305,17.681898 484.591827,17.308746 485.392700,16.801905 
	C491.069855,12.170683 496.907135,12.166070 503.028534,14.812572 
	C510.378204,18.369434 510.758789,25.477215 511.862305,32.603733 
z"/>
<path fill="#27292F" opacity="1.000000" stroke="none" 
	d="
M480.937134,21.070169 
	C480.061920,23.707588 479.186707,26.345009 478.643127,29.075933 
	C476.739777,34.934700 472.012543,31.406399 468.127777,31.977619 
	C468.510345,29.848610 469.157745,27.749214 470.164185,25.474487 
	C472.610992,28.393410 474.386536,28.003048 475.514038,24.659935 
	C476.236542,22.517637 476.524933,20.228910 477.223938,17.855221 
	C477.762787,16.884758 478.085663,16.064907 478.408508,15.245057 
	C478.082855,15.153776 477.757172,15.062496 477.431519,14.971216 
	C477.284821,15.977802 477.138123,16.984388 476.590942,17.991974 
	C474.855896,17.995188 473.521301,17.997402 472.186737,17.999615 
	C473.001404,15.580982 473.816101,13.162351 474.738464,10.405962 
	C481.380096,15.285477 488.220367,11.691815 494.676575,10.212427 
	C498.638306,9.304631 500.885040,10.932207 503.484833,12.816745 
	C503.713531,12.982516 503.389832,13.910334 503.175598,14.648382 
	C496.907135,12.166070 491.069855,12.170683 485.117126,16.926376 
	C484.011536,17.501432 483.502869,17.818329 482.994202,18.135221 
	C482.994202,18.135220 482.984955,17.999231 482.855896,18.174097 
	C482.483459,18.607107 482.240021,18.865252 481.996582,19.123390 
	C481.996582,19.123386 481.996521,18.981939 481.891296,19.227661 
	C481.503113,20.005646 481.220123,20.537909 480.937134,21.070169 
M475.497070,30.972801 
	C475.497070,30.972801 475.522095,30.997877 475.497070,30.972801 
z"/>
<path fill="#EF6809" opacity="1.000000" stroke="none" 
	d="
M276.968475,83.642250 
	C272.704102,88.286629 270.854584,83.663483 268.091980,81.167480 
	C271.815216,78.112129 274.033081,81.741539 276.968475,83.642250 
z"/>
<path fill="#EF6809" opacity="1.000000" stroke="none" 
	d="
M291.420349,90.910576 
	C289.250031,91.147873 287.337006,91.241470 285.065491,91.352608 
	C286.340912,87.178192 288.975922,88.352547 291.708984,88.991730 
	C291.900574,89.625679 291.789093,90.196274 291.420349,90.910576 
z"/>
<path fill="#EF6809" opacity="1.000000" stroke="none" 
	d="
M272.312469,90.955551 
	C272.617645,90.129738 273.206787,89.481918 273.795929,88.834091 
	C274.467499,90.048088 275.139099,91.262085 275.882446,92.799255 
	C274.834961,92.459457 273.715729,91.796494 272.312469,90.955551 
z"/>
<path fill="#EF6809" opacity="1.000000" stroke="none" 
	d="
M282.277588,62.786907 
	C281.212341,58.653622 283.542908,59.597134 286.050476,60.641712 
	C285.038330,61.460320 283.808533,62.110802 282.277588,62.786907 
z"/>
<path fill="#EF6809" opacity="1.000000" stroke="none" 
	d="
M285.098907,31.326080 
	C287.148499,31.208458 288.801361,31.567839 286.138550,33.880371 
	C285.633881,33.238903 285.339905,32.445580 285.098907,31.326080 
z"/>
<path fill="#EF6809" opacity="1.000000" stroke="none" 
	d="
M286.072327,35.435833 
	C286.277313,36.252243 286.427490,37.461502 286.368469,38.833595 
	C286.112000,37.940514 286.064758,36.884602 286.072327,35.435833 
z"/>
<path fill="#EF6809" opacity="1.000000" stroke="none" 
	d="
M263.700775,81.201233 
	C263.983551,81.920731 263.965851,82.656982 263.933563,83.760521 
	C263.076935,83.723106 262.234894,83.318390 261.010681,82.730019 
	C262.064850,82.062981 262.732544,81.640480 263.700775,81.201233 
z"/>
<path fill="#EF6809" opacity="1.000000" stroke="none" 
	d="
M282.763367,54.134865 
	C282.863220,54.970928 282.726898,55.714279 282.590576,56.457630 
	C282.374390,56.443405 282.158173,56.429180 281.941986,56.414951 
	C281.941986,55.741100 281.941986,55.067249 281.992767,54.140942 
	C282.204773,53.939709 282.365967,53.990932 282.763367,54.134865 
z"/>
<path fill="#EF6809" opacity="1.000000" stroke="none" 
	d="
M287.130676,47.415287 
	C287.453613,48.479671 287.702515,49.926121 287.951904,51.746601 
	C287.653809,50.679539 287.355255,49.238445 287.130676,47.415287 
z"/>
<path fill="#EF6809" opacity="1.000000" stroke="none" 
	d="
M286.672119,28.142227 
	C286.536072,28.692900 286.071930,29.208355 285.383484,29.861298 
	C285.554138,29.368193 285.949097,28.737600 286.672119,28.142227 
z"/>
<path fill="#EF6809" opacity="1.000000" stroke="none" 
	d="
M289.998413,28.741642 
	C289.863159,28.805052 289.631653,28.654448 289.240967,28.369818 
	C289.410919,28.168631 289.684357,28.265911 289.998413,28.741642 
z"/>
<path fill="#EF6809" opacity="1.000000" stroke="none" 
	d="
M288.792633,79.959969 
	C288.828949,80.063133 288.691772,80.279053 288.436462,80.640121 
	C288.296326,80.497803 288.396606,80.260292 288.792633,79.959969 
z"/>
<path fill="#27292F" opacity="1.000000" stroke="none" 
	d="
M479.504059,32.491909 
	C479.488495,32.495415 479.519623,32.488403 479.504059,32.491909 
z"/>
<path fill="#EF6809" opacity="1.000000" stroke="none" 
	d="
M279.897034,88.978867 
	C279.900757,88.933426 280.113800,88.992432 280.113800,88.992432 
	C280.113800,88.992432 279.893280,89.024315 279.897034,88.978867 
z"/>
<path fill="#EF6809" opacity="1.000000" stroke="none" 
	d="
M290.537964,77.216286 
	C290.513794,77.223145 290.562164,77.209427 290.537964,77.216286 
z"/>
<path fill="#EF6809" opacity="1.000000" stroke="none" 
	d="
M292.326630,77.129898 
	C292.366516,76.942276 292.439331,76.825645 292.512146,76.709015 
	C292.461304,76.872971 292.410431,77.036926 292.326630,77.129898 
z"/>
<path fill="#EF6809" opacity="1.000000" stroke="none" 
	d="
M293.537628,32.215950 
	C293.513489,32.222794 293.561768,32.209103 293.537628,32.215950 
z"/>
<path fill="#EF6809" opacity="1.000000" stroke="none" 
	d="
M285.249634,56.838501 
	C285.248199,56.877903 285.060730,56.828503 285.060730,56.828503 
	C285.060730,56.828503 285.251099,56.799103 285.249634,56.838501 
z"/>
<path fill="#EF6809" opacity="1.000000" stroke="none" 
	d="
M291.778625,81.216599 
	C291.752625,81.186928 291.917358,81.091003 291.917358,81.091003 
	C291.917358,81.091003 291.804626,81.246269 291.778625,81.216599 
z"/>
<path fill="#EF6809" opacity="1.000000" stroke="none" 
	d="
M291.472870,52.015942 
	C291.474640,51.999718 291.471100,52.032166 291.472870,52.015942 
z"/>
<path fill="#EF6809" opacity="1.000000" stroke="none" 
	d="
M276.992310,88.493195 
	C277.004181,88.481934 276.980408,88.504448 276.992310,88.493195 
z"/>
<path fill="#EF6809" opacity="1.000000" stroke="none" 
	d="
M290.527283,31.984196 
	C290.525482,32.000469 290.529053,31.967924 290.527283,31.984196 
z"/>
<path fill="#EF6809" opacity="1.000000" stroke="none" 
	d="
M293.492462,48.496407 
	C293.496124,48.512421 293.488800,48.480392 293.492462,48.496407 
z"/>
<path fill="#2A2928" opacity="1.000000" stroke="none" 
	d="
M500.001312,56.898453 
	C500.671509,61.525982 499.470703,64.402824 494.734283,64.813904 
	C490.398560,61.171913 488.802917,56.223816 490.571533,51.900738 
	C491.690033,49.166729 493.419189,47.520092 496.637604,48.048641 
	C499.890533,48.582870 500.270996,50.777000 500.010315,53.468903 
	C499.915070,54.452267 499.996063,55.452705 500.001312,56.898453 
z"/>
<path fill="#2D2925" opacity="1.000000" stroke="none" 
	d="
M93.282745,23.471321 
	C94.146027,21.595259 94.840752,20.064528 95.535469,18.533798 
	C96.135651,18.582623 96.735840,18.631447 97.336021,18.680273 
	C97.662376,23.300303 97.988731,27.920334 98.333488,32.800873 
	C95.770950,32.800873 93.699196,32.800873 90.733032,32.800873 
	C91.586403,29.581047 92.350296,26.698851 93.282745,23.471321 
z"/>
<path fill="#2A2928" opacity="1.000000" stroke="none" 
	d="
M472.077759,18.352772 
	C473.521301,17.997402 474.855896,17.995188 476.595093,17.996304 
	C476.999725,17.999634 477.007935,18.005835 477.007935,18.005835 
	C476.524933,20.228910 476.236542,22.517637 475.514038,24.659935 
	C474.386536,28.003048 472.610992,28.393410 470.337006,25.145775 
	C470.756836,22.896908 471.362793,20.801418 472.077759,18.352772 
z"/>
<path fill="#2B2927" opacity="1.000000" stroke="none" 
	d="
M401.151306,64.835915 
	C395.984772,60.772675 394.255920,55.219891 397.191742,51.083691 
	C398.321075,49.492569 401.127136,48.529343 403.214172,48.449085 
	C404.083435,48.415657 405.421417,51.337646 405.902954,53.092319 
	C406.369415,54.792141 405.774292,56.756779 406.062714,58.537518 
	C406.666138,62.263222 404.868164,64.030006 401.151306,64.835915 
z"/>
<path fill="#2A2928" opacity="1.000000" stroke="none" 
	d="
M483.313477,18.095137 
	C483.502869,17.818329 484.011536,17.501432 484.795776,17.060066 
	C484.591827,17.308746 484.112305,17.681898 483.313477,18.095137 
z"/>
<path fill="#2A2928" opacity="1.000000" stroke="none" 
	d="
M481.226990,20.925331 
	C481.220123,20.537909 481.503113,20.005646 481.962036,19.227600 
	C481.930908,19.581375 481.723877,20.180933 481.226990,20.925331 
z"/>
<path fill="#2A2928" opacity="1.000000" stroke="none" 
	d="
M482.251984,19.010979 
	C482.240021,18.865252 482.483459,18.607107 482.923889,18.169434 
	C482.916412,18.292791 482.711914,18.595676 482.251984,19.010979 
z"/>
<path fill="#2A2928" opacity="1.000000" stroke="none" 
	d="
M476.995605,17.995304 
	C477.138123,16.984388 477.284821,15.977802 477.431519,14.971216 
	C477.757172,15.062496 478.082855,15.153776 478.408508,15.245057 
	C478.085663,16.064907 477.762787,16.884758 477.223938,17.855221 
	C477.007935,18.005835 476.999725,17.999634 476.995605,17.995304 
z"/>
<path fill="#2A2928" opacity="1.000000" stroke="none" 
	d="
M475.509583,30.985340 
	C475.522095,30.997877 475.497070,30.972801 475.509583,30.985340 
z"/>
</svg>